<mxfile host="app.diagrams.net" modified="2022-03-19T02:33:14.744Z" agent="5.0 (X11)" etag="4IJKMa2SRBHGsv1VIPrr" version="17.1.3" type="github">
  <diagram id="C5RBs43oDa-KdzZeNtuy" name="Page-1">
    <mxGraphModel dx="1102" dy="640" grid="1" gridSize="10" guides="1" tooltips="1" connect="1" arrows="1" fold="1" page="1" pageScale="1" pageWidth="827" pageHeight="1169" background="none" math="0" shadow="0">
      <root>
        <mxCell id="WIyWlLk6GJQsqaUBKTNV-0" />
        <mxCell id="WIyWlLk6GJQsqaUBKTNV-1" parent="WIyWlLk6GJQsqaUBKTNV-0" />
        <mxCell id="CR0wy_OZubZaUzj732sK-26" style="edgeStyle=none;rounded=0;orthogonalLoop=1;jettySize=auto;html=1;exitX=0.5;exitY=1;exitDx=0;exitDy=0;entryX=0.5;entryY=0;entryDx=0;entryDy=0;" edge="1" parent="WIyWlLk6GJQsqaUBKTNV-1" source="WIyWlLk6GJQsqaUBKTNV-11" target="CR0wy_OZubZaUzj732sK-9">
          <mxGeometry relative="1" as="geometry" />
        </mxCell>
        <mxCell id="WIyWlLk6GJQsqaUBKTNV-11" value="&lt;div&gt;sqrt = numbers(variable) * numbers(variable)&lt;/div&gt;&lt;div&gt;sum = sum + sqrt&lt;br&gt;&lt;/div&gt;" style="rounded=1;whiteSpace=wrap;html=1;fontSize=12;glass=0;strokeWidth=1;shadow=0;fillColor=#d5e8d4;strokeColor=#82b366;" parent="WIyWlLk6GJQsqaUBKTNV-1" vertex="1">
          <mxGeometry x="90" y="356" width="260" height="40" as="geometry" />
        </mxCell>
        <mxCell id="CR0wy_OZubZaUzj732sK-30" style="edgeStyle=orthogonalEdgeStyle;rounded=0;orthogonalLoop=1;jettySize=auto;html=1;exitX=1;exitY=0.5;exitDx=0;exitDy=0;entryX=0;entryY=0.5;entryDx=0;entryDy=0;" edge="1" parent="WIyWlLk6GJQsqaUBKTNV-1" source="WIyWlLk6GJQsqaUBKTNV-12" target="CR0wy_OZubZaUzj732sK-8">
          <mxGeometry relative="1" as="geometry" />
        </mxCell>
        <mxCell id="WIyWlLk6GJQsqaUBKTNV-12" value="print sum" style="rounded=1;whiteSpace=wrap;html=1;fontSize=12;glass=0;strokeWidth=1;shadow=0;fillColor=#d5e8d4;strokeColor=#82b366;" parent="WIyWlLk6GJQsqaUBKTNV-1" vertex="1">
          <mxGeometry x="300" y="265" width="80" height="40" as="geometry" />
        </mxCell>
        <mxCell id="CR0wy_OZubZaUzj732sK-22" style="edgeStyle=none;rounded=0;orthogonalLoop=1;jettySize=auto;html=1;exitX=0.5;exitY=1;exitDx=0;exitDy=0;entryX=0.5;entryY=0;entryDx=0;entryDy=0;" edge="1" parent="WIyWlLk6GJQsqaUBKTNV-1" source="CR0wy_OZubZaUzj732sK-2" target="CR0wy_OZubZaUzj732sK-3">
          <mxGeometry relative="1" as="geometry" />
        </mxCell>
        <mxCell id="CR0wy_OZubZaUzj732sK-2" value="START" style="ellipse;whiteSpace=wrap;html=1;shadow=0;fillColor=#ffe6cc;strokeColor=#d79b00;" vertex="1" parent="WIyWlLk6GJQsqaUBKTNV-1">
          <mxGeometry x="180" y="30" width="80" height="50" as="geometry" />
        </mxCell>
        <mxCell id="CR0wy_OZubZaUzj732sK-23" style="edgeStyle=none;rounded=0;orthogonalLoop=1;jettySize=auto;html=1;exitX=0.5;exitY=1;exitDx=0;exitDy=0;entryX=0.5;entryY=0;entryDx=0;entryDy=0;" edge="1" parent="WIyWlLk6GJQsqaUBKTNV-1" source="CR0wy_OZubZaUzj732sK-3" target="CR0wy_OZubZaUzj732sK-6">
          <mxGeometry relative="1" as="geometry" />
        </mxCell>
        <mxCell id="CR0wy_OZubZaUzj732sK-3" value="INPUT given numbers" style="shape=parallelogram;perimeter=parallelogramPerimeter;whiteSpace=wrap;html=1;fixedSize=1;fillColor=#fff2cc;strokeColor=#d6b656;" vertex="1" parent="WIyWlLk6GJQsqaUBKTNV-1">
          <mxGeometry x="140" y="105" width="160" height="40" as="geometry" />
        </mxCell>
        <mxCell id="CR0wy_OZubZaUzj732sK-24" style="edgeStyle=none;rounded=0;orthogonalLoop=1;jettySize=auto;html=1;exitX=0.5;exitY=1;exitDx=0;exitDy=0;entryX=0.5;entryY=0;entryDx=0;entryDy=0;" edge="1" parent="WIyWlLk6GJQsqaUBKTNV-1" source="CR0wy_OZubZaUzj732sK-6" target="CR0wy_OZubZaUzj732sK-7">
          <mxGeometry relative="1" as="geometry" />
        </mxCell>
        <mxCell id="CR0wy_OZubZaUzj732sK-6" value="INITIALIZE variable = 0 " style="rounded=1;whiteSpace=wrap;html=1;fillColor=#d5e8d4;strokeColor=#82b366;" vertex="1" parent="WIyWlLk6GJQsqaUBKTNV-1">
          <mxGeometry x="150" y="172" width="140" height="40" as="geometry" />
        </mxCell>
        <mxCell id="CR0wy_OZubZaUzj732sK-25" style="edgeStyle=none;rounded=0;orthogonalLoop=1;jettySize=auto;html=1;exitX=0.5;exitY=1;exitDx=0;exitDy=0;entryX=0.5;entryY=0;entryDx=0;entryDy=0;" edge="1" parent="WIyWlLk6GJQsqaUBKTNV-1" source="CR0wy_OZubZaUzj732sK-7" target="WIyWlLk6GJQsqaUBKTNV-11">
          <mxGeometry relative="1" as="geometry" />
        </mxCell>
        <mxCell id="CR0wy_OZubZaUzj732sK-29" style="edgeStyle=orthogonalEdgeStyle;rounded=0;orthogonalLoop=1;jettySize=auto;html=1;exitX=1;exitY=0.5;exitDx=0;exitDy=0;entryX=0;entryY=0.5;entryDx=0;entryDy=0;" edge="1" parent="WIyWlLk6GJQsqaUBKTNV-1" source="CR0wy_OZubZaUzj732sK-7" target="WIyWlLk6GJQsqaUBKTNV-12">
          <mxGeometry relative="1" as="geometry" />
        </mxCell>
        <mxCell id="CR0wy_OZubZaUzj732sK-7" value="&lt;div&gt;IF variable&lt;/div&gt;&lt;div&gt;&amp;nbsp;is &amp;lt; given&lt;/div&gt;&lt;div&gt;&amp;nbsp;numbers ?&lt;br&gt;&lt;/div&gt;" style="rhombus;whiteSpace=wrap;html=1;fillColor=#f8cecc;strokeColor=#b85450;" vertex="1" parent="WIyWlLk6GJQsqaUBKTNV-1">
          <mxGeometry x="160" y="235" width="120" height="100" as="geometry" />
        </mxCell>
        <mxCell id="CR0wy_OZubZaUzj732sK-8" value="END" style="ellipse;whiteSpace=wrap;html=1;fillColor=#ffe6cc;strokeColor=#d79b00;" vertex="1" parent="WIyWlLk6GJQsqaUBKTNV-1">
          <mxGeometry x="410" y="260" width="70" height="50" as="geometry" />
        </mxCell>
        <mxCell id="CR0wy_OZubZaUzj732sK-31" style="edgeStyle=orthogonalEdgeStyle;rounded=0;orthogonalLoop=1;jettySize=auto;html=1;exitX=0;exitY=0.5;exitDx=0;exitDy=0;entryX=0;entryY=0.5;entryDx=0;entryDy=0;" edge="1" parent="WIyWlLk6GJQsqaUBKTNV-1" source="CR0wy_OZubZaUzj732sK-9" target="CR0wy_OZubZaUzj732sK-7">
          <mxGeometry relative="1" as="geometry">
            <Array as="points">
              <mxPoint x="70" y="440" />
              <mxPoint x="70" y="285" />
            </Array>
          </mxGeometry>
        </mxCell>
        <mxCell id="CR0wy_OZubZaUzj732sK-9" value="&lt;div&gt;increase&lt;/div&gt;&lt;div&gt;variable by 1&lt;br&gt;&lt;/div&gt;" style="rounded=1;whiteSpace=wrap;html=1;shadow=0;fillColor=#d5e8d4;strokeColor=#82b366;" vertex="1" parent="WIyWlLk6GJQsqaUBKTNV-1">
          <mxGeometry x="160" y="420" width="120" height="40" as="geometry" />
        </mxCell>
        <mxCell id="CR0wy_OZubZaUzj732sK-12" value="" style="strokeWidth=2;html=1;shape=mxgraph.flowchart.annotation_2;align=left;labelPosition=right;pointerEvents=1;shadow=0;dashed=1;rotation=-179;dashPattern=1 2;" vertex="1" parent="WIyWlLk6GJQsqaUBKTNV-1">
          <mxGeometry x="90" y="212" width="50" height="60" as="geometry" />
        </mxCell>
        <mxCell id="CR0wy_OZubZaUzj732sK-14" value="" style="edgeStyle=entityRelationEdgeStyle;orthogonalLoop=1;jettySize=auto;html=1;curved=1;dashed=1;entryX=0.4;entryY=0.485;entryDx=0;entryDy=0;entryPerimeter=0;exitX=0;exitY=0;exitDx=0;exitDy=0;" edge="1" parent="WIyWlLk6GJQsqaUBKTNV-1" source="CR0wy_OZubZaUzj732sK-7" target="CR0wy_OZubZaUzj732sK-12">
          <mxGeometry relative="1" as="geometry">
            <mxPoint x="190" y="255" as="sourcePoint" />
          </mxGeometry>
        </mxCell>
        <mxCell id="CR0wy_OZubZaUzj732sK-15" value="&lt;div&gt;while loop&lt;br&gt;&lt;/div&gt;&lt;div&gt;condition&lt;br&gt;&lt;/div&gt;" style="text;html=1;align=center;verticalAlign=middle;resizable=0;points=[];autosize=1;strokeColor=none;fillColor=none;" vertex="1" parent="WIyWlLk6GJQsqaUBKTNV-1">
          <mxGeometry x="40" y="230" width="70" height="30" as="geometry" />
        </mxCell>
        <mxCell id="CR0wy_OZubZaUzj732sK-16" value="&lt;div&gt;Flow chart for calculating the sum off&lt;/div&gt;&lt;div&gt;square of a given numbers&lt;br&gt;&lt;/div&gt;" style="text;html=1;align=center;verticalAlign=middle;resizable=0;points=[];autosize=1;strokeColor=none;fillColor=none;" vertex="1" parent="WIyWlLk6GJQsqaUBKTNV-1">
          <mxGeometry x="340" y="200" width="210" height="30" as="geometry" />
        </mxCell>
        <mxCell id="CR0wy_OZubZaUzj732sK-32" value="False" style="text;html=1;align=center;verticalAlign=middle;resizable=0;points=[];autosize=1;strokeColor=none;fillColor=none;" vertex="1" parent="WIyWlLk6GJQsqaUBKTNV-1">
          <mxGeometry x="250" y="245" width="40" height="20" as="geometry" />
        </mxCell>
        <mxCell id="CR0wy_OZubZaUzj732sK-34" value="True" style="text;html=1;align=center;verticalAlign=middle;resizable=0;points=[];autosize=1;strokeColor=none;fillColor=none;" vertex="1" parent="WIyWlLk6GJQsqaUBKTNV-1">
          <mxGeometry x="180" y="330" width="40" height="20" as="geometry" />
        </mxCell>
        <mxCell id="TWmz7WOXMoGs2plV_j6c-12" style="edgeStyle=orthogonalEdgeStyle;rounded=0;orthogonalLoop=1;jettySize=auto;html=1;exitX=0.5;exitY=1;exitDx=0;exitDy=0;exitPerimeter=0;entryX=0.5;entryY=0;entryDx=0;entryDy=0;" edge="1" parent="WIyWlLk6GJQsqaUBKTNV-1" source="TWmz7WOXMoGs2plV_j6c-0" target="TWmz7WOXMoGs2plV_j6c-2">
          <mxGeometry relative="1" as="geometry" />
        </mxCell>
        <mxCell id="TWmz7WOXMoGs2plV_j6c-0" value="START" style="strokeWidth=1;html=1;shape=mxgraph.flowchart.start_1;whiteSpace=wrap;shadow=0;fillColor=#ffe6cc;strokeColor=#d79b00;" vertex="1" parent="WIyWlLk6GJQsqaUBKTNV-1">
          <mxGeometry x="250" y="690" width="70" height="50" as="geometry" />
        </mxCell>
        <mxCell id="TWmz7WOXMoGs2plV_j6c-13" style="edgeStyle=orthogonalEdgeStyle;rounded=0;orthogonalLoop=1;jettySize=auto;html=1;exitX=0.5;exitY=1;exitDx=0;exitDy=0;entryX=0.5;entryY=0;entryDx=0;entryDy=0;" edge="1" parent="WIyWlLk6GJQsqaUBKTNV-1" source="TWmz7WOXMoGs2plV_j6c-2" target="TWmz7WOXMoGs2plV_j6c-3">
          <mxGeometry relative="1" as="geometry" />
        </mxCell>
        <mxCell id="TWmz7WOXMoGs2plV_j6c-2" value="INPUT a, b, c" style="shape=parallelogram;perimeter=parallelogramPerimeter;whiteSpace=wrap;html=1;fixedSize=1;shadow=0;strokeWidth=1;fillColor=#fff2cc;strokeColor=#d6b656;" vertex="1" parent="WIyWlLk6GJQsqaUBKTNV-1">
          <mxGeometry x="225" y="770" width="120" height="40" as="geometry" />
        </mxCell>
        <mxCell id="TWmz7WOXMoGs2plV_j6c-19" style="edgeStyle=orthogonalEdgeStyle;rounded=0;orthogonalLoop=1;jettySize=auto;html=1;exitX=1;exitY=0.5;exitDx=0;exitDy=0;entryX=0.5;entryY=0;entryDx=0;entryDy=0;" edge="1" parent="WIyWlLk6GJQsqaUBKTNV-1" source="TWmz7WOXMoGs2plV_j6c-3" target="TWmz7WOXMoGs2plV_j6c-4">
          <mxGeometry relative="1" as="geometry" />
        </mxCell>
        <mxCell id="TWmz7WOXMoGs2plV_j6c-20" style="edgeStyle=orthogonalEdgeStyle;rounded=0;orthogonalLoop=1;jettySize=auto;html=1;exitX=0;exitY=0.5;exitDx=0;exitDy=0;entryX=0.5;entryY=0;entryDx=0;entryDy=0;" edge="1" parent="WIyWlLk6GJQsqaUBKTNV-1" source="TWmz7WOXMoGs2plV_j6c-3" target="TWmz7WOXMoGs2plV_j6c-5">
          <mxGeometry relative="1" as="geometry" />
        </mxCell>
        <mxCell id="TWmz7WOXMoGs2plV_j6c-3" value="&lt;div&gt;IF&lt;/div&gt;&lt;div&gt;a &amp;gt; b&lt;br&gt;&lt;/div&gt;" style="rhombus;whiteSpace=wrap;html=1;shadow=0;strokeWidth=1;fillColor=#f8cecc;strokeColor=#b85450;" vertex="1" parent="WIyWlLk6GJQsqaUBKTNV-1">
          <mxGeometry x="245" y="840" width="80" height="80" as="geometry" />
        </mxCell>
        <mxCell id="TWmz7WOXMoGs2plV_j6c-18" style="edgeStyle=orthogonalEdgeStyle;rounded=0;orthogonalLoop=1;jettySize=auto;html=1;exitX=1;exitY=0.5;exitDx=0;exitDy=0;entryX=0.5;entryY=0;entryDx=0;entryDy=0;" edge="1" parent="WIyWlLk6GJQsqaUBKTNV-1" source="TWmz7WOXMoGs2plV_j6c-4" target="TWmz7WOXMoGs2plV_j6c-8">
          <mxGeometry relative="1" as="geometry" />
        </mxCell>
        <mxCell id="TWmz7WOXMoGs2plV_j6c-4" value="&lt;div&gt;IF &lt;br&gt;&lt;/div&gt;&lt;div&gt;a &amp;gt; c&lt;br&gt;&lt;/div&gt;" style="rhombus;whiteSpace=wrap;html=1;shadow=0;strokeWidth=1;fillColor=#f8cecc;strokeColor=#b85450;" vertex="1" parent="WIyWlLk6GJQsqaUBKTNV-1">
          <mxGeometry x="380" y="901" width="80" height="80" as="geometry" />
        </mxCell>
        <mxCell id="TWmz7WOXMoGs2plV_j6c-14" style="edgeStyle=orthogonalEdgeStyle;rounded=0;orthogonalLoop=1;jettySize=auto;html=1;exitX=0;exitY=0.5;exitDx=0;exitDy=0;entryX=0.5;entryY=0;entryDx=0;entryDy=0;" edge="1" parent="WIyWlLk6GJQsqaUBKTNV-1" source="TWmz7WOXMoGs2plV_j6c-5" target="TWmz7WOXMoGs2plV_j6c-6">
          <mxGeometry relative="1" as="geometry" />
        </mxCell>
        <mxCell id="TWmz7WOXMoGs2plV_j6c-5" value="&lt;div&gt;IF&lt;/div&gt;&lt;div&gt;b &amp;gt; c&lt;br&gt;&lt;/div&gt;" style="rhombus;whiteSpace=wrap;html=1;shadow=0;strokeWidth=1;fillColor=#f8cecc;strokeColor=#b85450;" vertex="1" parent="WIyWlLk6GJQsqaUBKTNV-1">
          <mxGeometry x="120" y="901" width="80" height="80" as="geometry" />
        </mxCell>
        <mxCell id="TWmz7WOXMoGs2plV_j6c-16" style="edgeStyle=orthogonalEdgeStyle;rounded=0;orthogonalLoop=1;jettySize=auto;html=1;exitX=0.5;exitY=1;exitDx=0;exitDy=0;entryX=0;entryY=0.5;entryDx=0;entryDy=0;" edge="1" parent="WIyWlLk6GJQsqaUBKTNV-1" source="TWmz7WOXMoGs2plV_j6c-6" target="TWmz7WOXMoGs2plV_j6c-9">
          <mxGeometry relative="1" as="geometry" />
        </mxCell>
        <mxCell id="TWmz7WOXMoGs2plV_j6c-6" value="&lt;div&gt;PRINT &lt;br&gt;&lt;/div&gt;&lt;div&gt;b is the highest&lt;br&gt;&lt;/div&gt;" style="shape=parallelogram;perimeter=parallelogramPerimeter;whiteSpace=wrap;html=1;fixedSize=1;shadow=0;strokeWidth=1;fillColor=#fff2cc;strokeColor=#d6b656;" vertex="1" parent="WIyWlLk6GJQsqaUBKTNV-1">
          <mxGeometry x="15" y="1010" width="120" height="40" as="geometry" />
        </mxCell>
        <mxCell id="TWmz7WOXMoGs2plV_j6c-29" style="edgeStyle=orthogonalEdgeStyle;rounded=0;orthogonalLoop=1;jettySize=auto;html=1;exitX=0.5;exitY=1;exitDx=0;exitDy=0;entryX=0.5;entryY=0;entryDx=0;entryDy=0;" edge="1" parent="WIyWlLk6GJQsqaUBKTNV-1" source="TWmz7WOXMoGs2plV_j6c-7" target="TWmz7WOXMoGs2plV_j6c-9">
          <mxGeometry relative="1" as="geometry" />
        </mxCell>
        <mxCell id="TWmz7WOXMoGs2plV_j6c-7" value="&lt;div&gt;PRINT&lt;/div&gt;&lt;div&gt;c is the highest&lt;br&gt;&lt;/div&gt;" style="shape=parallelogram;perimeter=parallelogramPerimeter;whiteSpace=wrap;html=1;fixedSize=1;shadow=0;strokeWidth=1;fillColor=#fff2cc;strokeColor=#d6b656;" vertex="1" parent="WIyWlLk6GJQsqaUBKTNV-1">
          <mxGeometry x="230" y="1010" width="120" height="40" as="geometry" />
        </mxCell>
        <mxCell id="TWmz7WOXMoGs2plV_j6c-17" style="edgeStyle=orthogonalEdgeStyle;rounded=0;orthogonalLoop=1;jettySize=auto;html=1;exitX=0.5;exitY=1;exitDx=0;exitDy=0;entryX=1;entryY=0.5;entryDx=0;entryDy=0;" edge="1" parent="WIyWlLk6GJQsqaUBKTNV-1" source="TWmz7WOXMoGs2plV_j6c-8" target="TWmz7WOXMoGs2plV_j6c-9">
          <mxGeometry relative="1" as="geometry" />
        </mxCell>
        <mxCell id="TWmz7WOXMoGs2plV_j6c-8" value="&lt;div&gt;PRINT&lt;/div&gt;&lt;div&gt;a is the highest&lt;br&gt;&lt;/div&gt;" style="shape=parallelogram;perimeter=parallelogramPerimeter;whiteSpace=wrap;html=1;fixedSize=1;shadow=0;strokeWidth=1;fillColor=#fff2cc;strokeColor=#d6b656;" vertex="1" parent="WIyWlLk6GJQsqaUBKTNV-1">
          <mxGeometry x="440" y="1010" width="120" height="40" as="geometry" />
        </mxCell>
        <mxCell id="TWmz7WOXMoGs2plV_j6c-9" value="STOP" style="ellipse;whiteSpace=wrap;html=1;shadow=0;strokeWidth=1;fillColor=#ffe6cc;strokeColor=#d79b00;" vertex="1" parent="WIyWlLk6GJQsqaUBKTNV-1">
          <mxGeometry x="245" y="1089" width="85" height="51" as="geometry" />
        </mxCell>
        <mxCell id="TWmz7WOXMoGs2plV_j6c-21" value="" style="endArrow=none;html=1;rounded=0;entryX=0;entryY=0.5;entryDx=0;entryDy=0;" edge="1" parent="WIyWlLk6GJQsqaUBKTNV-1" source="TWmz7WOXMoGs2plV_j6c-5" target="TWmz7WOXMoGs2plV_j6c-4">
          <mxGeometry width="50" height="50" relative="1" as="geometry">
            <mxPoint x="180" y="990" as="sourcePoint" />
            <mxPoint x="310" y="930" as="targetPoint" />
            <Array as="points">
              <mxPoint x="290" y="940" />
            </Array>
          </mxGeometry>
        </mxCell>
        <mxCell id="TWmz7WOXMoGs2plV_j6c-23" value="" style="endArrow=classic;html=1;rounded=0;" edge="1" parent="WIyWlLk6GJQsqaUBKTNV-1">
          <mxGeometry width="50" height="50" relative="1" as="geometry">
            <mxPoint x="287" y="940" as="sourcePoint" />
            <mxPoint x="287" y="1010" as="targetPoint" />
          </mxGeometry>
        </mxCell>
        <mxCell id="TWmz7WOXMoGs2plV_j6c-24" value="True" style="text;html=1;align=center;verticalAlign=middle;resizable=0;points=[];autosize=1;strokeColor=none;fillColor=none;" vertex="1" parent="WIyWlLk6GJQsqaUBKTNV-1">
          <mxGeometry x="350" y="860" width="40" height="20" as="geometry" />
        </mxCell>
        <mxCell id="TWmz7WOXMoGs2plV_j6c-25" value="False" style="text;html=1;align=center;verticalAlign=middle;resizable=0;points=[];autosize=1;strokeColor=none;fillColor=none;" vertex="1" parent="WIyWlLk6GJQsqaUBKTNV-1">
          <mxGeometry x="185" y="860" width="40" height="20" as="geometry" />
        </mxCell>
        <mxCell id="TWmz7WOXMoGs2plV_j6c-26" value="True" style="text;html=1;align=center;verticalAlign=middle;resizable=0;points=[];autosize=1;strokeColor=none;fillColor=none;" vertex="1" parent="WIyWlLk6GJQsqaUBKTNV-1">
          <mxGeometry x="460" y="920" width="40" height="20" as="geometry" />
        </mxCell>
        <mxCell id="TWmz7WOXMoGs2plV_j6c-27" value="False" style="text;html=1;align=center;verticalAlign=middle;resizable=0;points=[];autosize=1;strokeColor=none;fillColor=none;" vertex="1" parent="WIyWlLk6GJQsqaUBKTNV-1">
          <mxGeometry x="205" y="920" width="40" height="20" as="geometry" />
        </mxCell>
        <mxCell id="TWmz7WOXMoGs2plV_j6c-28" value="False" style="text;html=1;align=center;verticalAlign=middle;resizable=0;points=[];autosize=1;strokeColor=none;fillColor=none;" vertex="1" parent="WIyWlLk6GJQsqaUBKTNV-1">
          <mxGeometry x="325" y="920" width="40" height="20" as="geometry" />
        </mxCell>
        <mxCell id="TWmz7WOXMoGs2plV_j6c-30" value="True" style="text;html=1;align=center;verticalAlign=middle;resizable=0;points=[];autosize=1;strokeColor=none;fillColor=none;" vertex="1" parent="WIyWlLk6GJQsqaUBKTNV-1">
          <mxGeometry x="80" y="920" width="40" height="20" as="geometry" />
        </mxCell>
        <mxCell id="TWmz7WOXMoGs2plV_j6c-39" style="edgeStyle=orthogonalEdgeStyle;rounded=0;orthogonalLoop=1;jettySize=auto;html=1;exitX=0.5;exitY=1;exitDx=0;exitDy=0;entryX=0.5;entryY=0;entryDx=0;entryDy=0;" edge="1" parent="WIyWlLk6GJQsqaUBKTNV-1" source="TWmz7WOXMoGs2plV_j6c-31" target="TWmz7WOXMoGs2plV_j6c-33">
          <mxGeometry relative="1" as="geometry" />
        </mxCell>
        <mxCell id="TWmz7WOXMoGs2plV_j6c-31" value="START" style="ellipse;whiteSpace=wrap;html=1;shadow=0;strokeWidth=1;fillColor=#ffe6cc;strokeColor=#d79b00;" vertex="1" parent="WIyWlLk6GJQsqaUBKTNV-1">
          <mxGeometry x="590" y="356" width="80" height="53.33" as="geometry" />
        </mxCell>
        <mxCell id="TWmz7WOXMoGs2plV_j6c-40" style="edgeStyle=orthogonalEdgeStyle;rounded=0;orthogonalLoop=1;jettySize=auto;html=1;exitX=0.5;exitY=1;exitDx=0;exitDy=0;entryX=0.5;entryY=0;entryDx=0;entryDy=0;" edge="1" parent="WIyWlLk6GJQsqaUBKTNV-1" source="TWmz7WOXMoGs2plV_j6c-33" target="TWmz7WOXMoGs2plV_j6c-34">
          <mxGeometry relative="1" as="geometry" />
        </mxCell>
        <mxCell id="TWmz7WOXMoGs2plV_j6c-33" value="variable i, n &amp;amp; sum" style="rounded=1;whiteSpace=wrap;html=1;shadow=0;strokeWidth=1;fillColor=#d5e8d4;strokeColor=#82b366;" vertex="1" parent="WIyWlLk6GJQsqaUBKTNV-1">
          <mxGeometry x="570" y="440" width="120" height="40" as="geometry" />
        </mxCell>
        <mxCell id="TWmz7WOXMoGs2plV_j6c-41" style="edgeStyle=orthogonalEdgeStyle;rounded=0;orthogonalLoop=1;jettySize=auto;html=1;exitX=0.5;exitY=1;exitDx=0;exitDy=0;entryX=0.5;entryY=0;entryDx=0;entryDy=0;" edge="1" parent="WIyWlLk6GJQsqaUBKTNV-1" source="TWmz7WOXMoGs2plV_j6c-34" target="TWmz7WOXMoGs2plV_j6c-35">
          <mxGeometry relative="1" as="geometry" />
        </mxCell>
        <mxCell id="TWmz7WOXMoGs2plV_j6c-34" value="read n" style="shape=parallelogram;perimeter=parallelogramPerimeter;whiteSpace=wrap;html=1;fixedSize=1;shadow=0;strokeWidth=1;fillColor=#fff2cc;strokeColor=#d6b656;" vertex="1" parent="WIyWlLk6GJQsqaUBKTNV-1">
          <mxGeometry x="570" y="510" width="120" height="40" as="geometry" />
        </mxCell>
        <mxCell id="TWmz7WOXMoGs2plV_j6c-42" style="edgeStyle=orthogonalEdgeStyle;rounded=0;orthogonalLoop=1;jettySize=auto;html=1;exitX=0.5;exitY=1;exitDx=0;exitDy=0;entryX=0.5;entryY=0;entryDx=0;entryDy=0;" edge="1" parent="WIyWlLk6GJQsqaUBKTNV-1" source="TWmz7WOXMoGs2plV_j6c-35" target="TWmz7WOXMoGs2plV_j6c-36">
          <mxGeometry relative="1" as="geometry" />
        </mxCell>
        <mxCell id="TWmz7WOXMoGs2plV_j6c-43" style="edgeStyle=orthogonalEdgeStyle;rounded=0;orthogonalLoop=1;jettySize=auto;html=1;exitX=1;exitY=0.5;exitDx=0;exitDy=0;entryX=1;entryY=0.5;entryDx=0;entryDy=0;" edge="1" parent="WIyWlLk6GJQsqaUBKTNV-1" source="TWmz7WOXMoGs2plV_j6c-35" target="TWmz7WOXMoGs2plV_j6c-37">
          <mxGeometry relative="1" as="geometry" />
        </mxCell>
        <mxCell id="TWmz7WOXMoGs2plV_j6c-35" value="&lt;div&gt;for i=1&lt;/div&gt;&lt;div&gt;i &amp;lt;= n&lt;br&gt;&lt;/div&gt;" style="rhombus;whiteSpace=wrap;html=1;shadow=0;strokeWidth=1;fillColor=#f8cecc;strokeColor=#b85450;" vertex="1" parent="WIyWlLk6GJQsqaUBKTNV-1">
          <mxGeometry x="590" y="584.5" width="80" height="80" as="geometry" />
        </mxCell>
        <mxCell id="TWmz7WOXMoGs2plV_j6c-44" style="edgeStyle=orthogonalEdgeStyle;rounded=0;orthogonalLoop=1;jettySize=auto;html=1;exitX=0;exitY=0.5;exitDx=0;exitDy=0;entryX=0;entryY=0.5;entryDx=0;entryDy=0;" edge="1" parent="WIyWlLk6GJQsqaUBKTNV-1" source="TWmz7WOXMoGs2plV_j6c-36" target="TWmz7WOXMoGs2plV_j6c-35">
          <mxGeometry relative="1" as="geometry" />
        </mxCell>
        <mxCell id="TWmz7WOXMoGs2plV_j6c-36" value="sum = sum + 1" style="rounded=1;whiteSpace=wrap;html=1;shadow=0;strokeWidth=1;fillColor=#d5e8d4;strokeColor=#82b366;" vertex="1" parent="WIyWlLk6GJQsqaUBKTNV-1">
          <mxGeometry x="570" y="690" width="120" height="40" as="geometry" />
        </mxCell>
        <mxCell id="TWmz7WOXMoGs2plV_j6c-45" style="edgeStyle=orthogonalEdgeStyle;rounded=0;orthogonalLoop=1;jettySize=auto;html=1;exitX=0.5;exitY=1;exitDx=0;exitDy=0;entryX=0.5;entryY=0;entryDx=0;entryDy=0;" edge="1" parent="WIyWlLk6GJQsqaUBKTNV-1" source="TWmz7WOXMoGs2plV_j6c-37" target="TWmz7WOXMoGs2plV_j6c-38">
          <mxGeometry relative="1" as="geometry" />
        </mxCell>
        <mxCell id="TWmz7WOXMoGs2plV_j6c-37" value="print sum" style="rounded=1;whiteSpace=wrap;html=1;shadow=0;strokeWidth=1;fillColor=#d5e8d4;strokeColor=#82b366;" vertex="1" parent="WIyWlLk6GJQsqaUBKTNV-1">
          <mxGeometry x="545" y="760" width="170" height="40" as="geometry" />
        </mxCell>
        <mxCell id="TWmz7WOXMoGs2plV_j6c-38" value="END" style="ellipse;whiteSpace=wrap;html=1;shadow=0;strokeWidth=1;fillColor=#ffe6cc;strokeColor=#d79b00;" vertex="1" parent="WIyWlLk6GJQsqaUBKTNV-1">
          <mxGeometry x="590" y="826.67" width="80" height="53.33" as="geometry" />
        </mxCell>
        <mxCell id="TWmz7WOXMoGs2plV_j6c-46" value="False" style="text;html=1;align=center;verticalAlign=middle;resizable=0;points=[];autosize=1;strokeColor=none;fillColor=none;" vertex="1" parent="WIyWlLk6GJQsqaUBKTNV-1">
          <mxGeometry x="670" y="600" width="40" height="20" as="geometry" />
        </mxCell>
        <mxCell id="TWmz7WOXMoGs2plV_j6c-47" value="True" style="text;html=1;align=center;verticalAlign=middle;resizable=0;points=[];autosize=1;strokeColor=none;fillColor=none;" vertex="1" parent="WIyWlLk6GJQsqaUBKTNV-1">
          <mxGeometry x="630" y="664.5" width="40" height="20" as="geometry" />
        </mxCell>
      </root>
    </mxGraphModel>
  </diagram>
</mxfile>
